#!OML:ASF G:\JayActor3\Patient Classification 1\Patient 1\Session 6\male.ASF
:FULLY-SPECIFIED
:DEGREES
1583
root 3.44619 16.3469 -23.2111 178.086 -50.5632 -181.473
lowerback -0.757025 -0.420442 8.79536
upperback 8.05606 -2.0206 4.52982
thorax 8.92788 -0.805905 -0.2926
lowerneck 7.19939 3.59101 6.97609
upperneck -8.44811 4.84963 -7.56566
head -3.31968 2.52986 -3.66469
rclavicle 2.42517e-014 -5.40694e-014
rhumerus -41.8925 8.33917 -92.0944
rradius 109.417
rwrist -22.8495
rhand -29.7 -20.7791
rfingers 7.12502
rthumb -3.02776 -50.7374
lclavicle 2.42517e-014 -5.40694e-014
lhumerus -36.1572 16.7936 81.8014
lradius 18.5472
lwrist 21.647
lhand -7.95172 11.9791
lfingers 7.12502
lthumb 17.9553 41.1703
rfemur -8.8216 -9.02408 23.6971
rtibia 37.4858
rfoot -34.124 -16.0491
rtoes 15.7562
lfemur -13.9087 7.73783 -11.4257
ltibia 34.1082
lfoot -14.5562 -3.86947
ltoes -17.4364
1584
root 3.42619 16.3385 -23.2025 178.072 -49.8313 -181.404
lowerback -0.765662 -0.419885 8.76816
upperback 8.08516 -2.03129 4.53968
thorax 8.96607 -0.815181 -0.268313
lowerneck 7.18756 3.77333 7.13611
upperneck -8.33567 5.11 -7.66189
head -3.25735 2.65939 -3.72634
rclavicle 4.09496e-014 -1.30403e-013
rhumerus -41.783 8.46809 -92.0341
rradius 109.467
rwrist -22.9414
rhand -29.689 -20.8091
rfingers 7.12502
rthumb -3.01714 -50.7675
lclavicle 4.09496e-014 -1.30403e-013
lhumerus -36.0336 16.7416 81.726
lradius 18.458
lwrist 21.5868
lhand -7.95824 12.0719
lfingers 7.12502
lthumb 17.949 41.2636
rfemur -8.92872 -8.8232 23.6571
rtibia 37.5987
rfoot -33.8784 -15.8151
rtoes 15.4906
lfemur -13.68 7.53957 -11.3568
ltibia 33.5804
lfoot -14.3257 -3.91667
ltoes -17.3407
1585
root 3.40644 16.3294 -23.1932 178.021 -49.0957 -181.308
lowerback -0.771613 -0.424605 8.74977
upperback 8.12661 -2.05178 4.54759
thorax 9.01589 -0.828573 -0.251627
lowerneck 7.20729 3.94453 7.3036
upperneck -8.21909 5.35949 -7.75004
head -3.19925 2.78378 -3.78663
rclavicle 1.11319e-013 -1.27222e-014
rhumerus -41.6405 8.58749 -91.9779
rradius 109.513
rwrist -23.0057
rhand -29.6775 -20.8524
rfingers 7.12502
rthumb -3.00597 -50.811
lclavicle 1.11319e-013 -1.27222e-014
lhumerus -35.8898 16.6787 81.6462
lradius 18.3952
lwrist 21.5291
lhand -7.97778 12.1467
lfingers 7.12502
lthumb 17.9302 41.3402
rfemur -9.01973 -8.62493 23.6327
rtibia 37.7086
rfoot -33.6346 -15.5926
rtoes 15.1858
lfemur -13.4338 7.34176 -11.2621
ltibia 33.1274
lfoot -14.0103 -3.78745
ltoes -17.1192
1586
root 3.38707 16.3197 -23.1839 177.943 -48.341 -181.2
lowerback -0.77418 -0.428421 8.72313
upperback 8.18199 -2.07272 4.55309
thorax 9.07939 -0.842608 -0.232884
lowerneck 7.25064 4.10251 7.46859
upperneck -8.0897 5.59508 -7.81892
head -3.14243 2.90128 -3.84013
rclavicle -1.11319e-014 4.45278e-014
rhumerus -41.4727 8.69455 -91.9276
rradius 109.557
rwrist -23.0692
rhand -29.6771 -20.8942
rfingers 7.12502
rthumb -3.00563 -50.8527
lclavicle -1.11319e-014 4.45278e-014
lhumerus -35.7277 16.5972 81.567
lradius 18.3632
lwrist 21.4799
lhand -8.01283 12.1868
lfingers 7.12502
lthumb 17.8965 41.3834
rfemur -9.09301 -8.41909 23.616
rtibia 37.8178
rfoot -33.3805 -15.3804
rtoes 14.8071
lfemur -13.1645 7.18333 -11.1517
ltibia 32.7482
lfoot -13.5852 -3.5387
ltoes -16.8329
1587
root 3.36817 16.3092 -23.1747 177.83 -47.565 -181.067
lowerback -0.776439 -0.430634 8.69398
upperback 8.25015 -2.09417 4.55855
thorax 9.15726 -0.857088 -0.212788
lowerneck 7.32117 4.24404 7.62326
upperneck -7.94583 5.81268 -7.85942
head -3.08793 3.00977 -3.88285
rclavicle -8.70677e-014 -1.27222e-014
rhumerus -41.2864 8.78839 -91.8839
rradius 109.598
rwrist -23.1409
rhand -29.6466 -20.9429
rfingers 7.12502
rthumb -2.97612 -50.9019
lclavicle -8.70677e-014 -1.27222e-014
lhumerus -35.5484 16.4819 81.4972
lradius 18.3601
lwrist 21.4567
lhand -8.08694 12.1892
lfingers 7.12502
lthumb 17.8252 41.3923
rfemur -9.14739 -8.19718 23.6193
rtibia 37.9227
rfoot -33.1142 -15.1793
rtoes 14.3541
lfemur -12.8785 7.0875 -11.0191
ltibia 32.4479
lfoot -13.029 -3.22764
ltoes -16.4369
1588
root 3.35018 16.2982 -23.1659 177.665 -46.7628 -180.881
lowerback -0.775951 -0.429238 8.67807
upperback 8.32945 -2.11525 4.57127
thorax 9.24667 -0.871229 -0.19211
lowerneck 7.41951 4.37056 7.76743
upperneck -7.79192 6.01382 -7.87291
head -3.0372 3.11001 -3.91548
rclavicle 1.63003e-014 5.56597e-014
rhumerus -41.0725 8.8695 -91.8477
rradius 109.625
rwrist -23.2323
rhand -29.6109 -21.0002
rfingers 7.12502
rthumb -2.94174 -50.9597
lclavicle 1.63003e-014 5.56597e-014
lhumerus -35.3509 16.3332 81.4393
lradius 18.3774
lwrist 21.411
lhand -8.22682 12.0991
lfingers 7.12502
lthumb 17.6906 41.3144
rfemur -9.18837 -7.94178 23.6728
rtibia 38.0211
rfoot -32.8408 -14.9892
rtoes 13.8636
lfemur -12.5852 7.06198 -10.8422
ltibia 32.227
lfoot -12.3738 -2.90362
ltoes -15.8565
1589
root 3.33254 16.2869 -23.1578 177.444 -45.9399 -180.642
lowerback -0.768927 -0.426749 8.6777
upperback 8.41852 -2.13895 4.59104
thorax 9.34366 -0.886475 -0.172556
lowerneck 7.53956 4.47917 7.88893
upperneck -7.61759 6.19419 -7.84701
head -2.98744 3.19964 -3.93186
rclavicle 6.24184e-014 -4.13472e-014
rhumerus -40.8529 8.93321 -91.816
rradius 109.651
rwrist -23.337
rhand -29.5699 -21.0585
rfingers 7.12502
rthumb -2.9021 -51.0185
lclavicle 6.24184e-014 -4.13472e-014
lhumerus -35.1446 16.1471 81.3967
lradius 18.4207
lwrist 21.3656
lhand -8.45182 11.9301
lfingers 7.12502
lthumb 17.4741 41.1647
rfemur -9.20169 -7.6708 23.7707
rtibia 38.1085
rfoot -32.5523 -14.7975
rtoes 13.3488
lfemur -12.2792 7.10615 -10.6227
ltibia 32.0887
lfoot -11.7388 -2.60038
ltoes -15.017
1590
root 3.31525 16.2754 -23.1499 177.181 -45.1089 -180.363
lowerback -0.753105 -0.429058 8.68938
upperback 8.51175 -2.17148 4.61653
thorax 9.44007 -0.906165 -0.154136
lowerneck 7.67471 4.56928 7.98581
upperneck -7.41695 6.35206 -7.78372
head -2.93608 3.27782 -3.93198
rclavicle -1.03368e-013 2.8625e-014
rhumerus -40.6324 8.98945 -91.7929
rradius 109.667
rwrist -23.4103
rhand -29.5572 -21.1453
rfingers 7.12502
rthumb -2.8898 -51.1054
lclavicle -1.03368e-013 2.8625e-014
lhumerus -34.93 15.9101 81.3794
lradius 18.4898
lwrist 21.3443
lhand -8.80771 11.6798
lfingers 7.12502
lthumb 17.1315 40.9445
rfemur -9.19634 -7.39904 23.905
rtibia 38.185
rfoot -32.248 -14.6014
rtoes 12.832
lfemur -11.9711 7.20212 -10.3735
ltibia 32.0286
lfoot -11.2318 -2.28977
ltoes -14.061
1591
root 3.29795 16.264 -23.1421 176.88 -44.2788 -180.041
lowerback -0.734341 -0.438855 8.72319
upperback 8.60908 -2.21789 4.64719
thorax 9.53898 -0.931868 -0.143514
lowerneck 7.80834 4.63897 8.05355
upperneck -7.1801 6.48306 -7.6832
head -2.87806 3.34224 -3.91435
rclavicle 1.78906e-014 -1.27222e-014
rhumerus -40.407 9.03244 -91.7731
rradius 109.673
rwrist -23.4533
rhand -29.5767 -21.2348
rfingers 7.12502
rthumb -2.90862 -51.1947
lclavicle 1.78906e-014 -1.27222e-014
lhumerus -34.7105 15.6381 81.3778
lradius 18.5956
lwrist 21.3637
lhand -9.25052 11.413
lfingers 7.12502
lthumb 16.7053 40.7142
rfemur -9.17427 -7.12927 24.0786
rtibia 38.2504
rfoot -31.9443 -14.3972
rtoes 12.3566
lfemur -11.6664 7.33444 -10.0943
ltibia 32.0396
lfoot -10.9228 -1.93131
ltoes -13.1211
1592
root 3.28004 16.2529 -23.134 176.584 -43.459 -179.73
lowerback -0.724875 -0.45902 8.74815
upperback 8.71251 -2.2799 4.6728
thorax 9.64944 -0.965371 -0.134927
lowerneck 7.90073 4.68787 8.10123
upperneck -6.88073 6.5842 -7.55861
head -2.79854 3.3913 -3.88244
rclavicle -7.31528e-014 -6.67916e-014
rhumerus -40.1738 9.05814 -91.7519
rradius 109.65
rwrist -23.415
rhand -29.5977 -21.3069
rfingers 7.12502
rthumb -2.92897 -51.2665
lclavicle -7.31528e-014 -6.67916e-014
lhumerus -34.4789 15.3436 81.3902
lradius 18.7378
lwrist 21.4469
lhand -9.76502 11.1522
lfingers 7.12502
lthumb 16.2099 40.4945
rfemur -9.13919 -6.89438 24.2387
rtibia 38.308
rfoot -31.6219 -14.1821
rtoes 11.8822
lfemur -11.3638 7.48491 -9.83351
ltibia 32.1059
lfoot -10.8483 -1.49503
ltoes -12.3641
1593
root 3.26143 16.2423 -23.1252 176.294 -42.6603 -179.427
lowerback -0.721896 -0.492288 8.77166
upperback 8.8175 -2.36041 4.693
thorax 9.76438 -1.00764 -0.133121
lowerneck 7.94411 4.71409 8.11943
upperneck -6.51752 6.65105 -7.40515
head -2.69677 3.42272 -3.83298
rclavicle 7.27552e-014 4.77083e-015
rhumerus -39.947 9.06034 -91.7379
rradius 109.604
rwrist -23.322
rhand -29.6206 -21.3467
rfingers 7.12502
rthumb -2.95107 -51.306
lclavicle 7.27552e-014 4.77083e-015
lhumerus -34.2382 15.0466 81.4006
lradius 18.9157
lwrist 21.6019
lhand -10.3035 10.93
lfingers 7.12502
lthumb 15.6914 40.3138
rfemur -9.09737 -6.67857 24.3929
rtibia 38.3588
rfoot -31.3 -13.9794
rtoes 11.3963
lfemur -11.0686 7.62952 -9.59022
ltibia 32.2078
lfoot -10.973 -0.967472
ltoes -11.8507
1594
root 3.24181 16.2323 -23.1163 176.017 -41.8705 -179.137
lowerback -0.731549 -0.533618 8.78755
upperback 8.92439 -2.4532 4.70949
thorax 9.88844 -1.05602 -0.132551
lowerneck 7.91732 4.71666 8.11643
upperneck -6.08198 6.68005 -7.24072
head -2.5661 3.43505 -3.77188
rclavicle -8.66701e-014 9.54166e-015
rhumerus -39.7181 9.03732 -91.7252
rradius 109.53
rwrist -23.2264
rhand -29.6432 -21.3291
rfingers 7.12502
rthumb -2.97284 -51.2881
lclavicle -8.66701e-014 9.54166e-015
lhumerus -33.9914 14.7902 81.3899
lradius 19.1249
lwrist 21.7922
lhand -10.8248 10.7596
lfingers 7.12502
lthumb 15.1893 40.1821
rfemur -9.04939 -6.46675 24.5398
rtibia 38.4028
rfoot -30.982 -13.7974
rtoes 10.8654
lfemur -10.7727 7.76645 -9.36491
ltibia 32.3224
lfoot -11.2179 -0.373673
ltoes -11.4565
1595
root 3.22091 16.2232 -23.1075 175.768 -41.0919 -178.877
lowerback -0.754423 -0.583838 8.78087
upperback 9.02747 -2.5563 4.71848
thorax 10.0154 -1.1103 -0.12901
lowerneck 7.83398 4.69307 8.09015
upperneck -5.58774 6.66756 -7.06979
head -2.41302 3.42674 -3.7011
rclavicle 2.54444e-014 -6.36111e-015
rhumerus -39.5162 8.99872 -91.7221
rradius 109.437
rwrist -23.1044
rhand -29.6596 -21.2812
rfingers 7.12502
rthumb -2.98877 -51.24
lclavicle 2.54444e-014 -6.36111e-015
lhumerus -33.7515 14.5856 81.3497
lradius 19.3639
lwrist 22.01
lhand -11.3143 10.6339
lfingers 7.12502
lthumb 14.7177 40.0914
rfemur -8.99532 -6.2543 24.6633
rtibia 38.4399
rfoot -30.6825 -13.6245
rtoes 10.3208
lfemur -10.4712 7.88901 -9.1736
ltibia 32.427
lfoot -11.4968 0.254486
ltoes -11.0665
1596
root 3.19916 16.2152 -23.0988 175.544 -40.3196 -178.622
lowerback -0.794095 -0.64055 8.76781
upperback 9.11937 -2.66765 4.72727
thorax 10.1395 -1.16882 -0.123596
lowerneck 7.73068 4.64114 8.06331
upperneck -4.85354 6.63809 -6.62705
head -2.43952 3.38567 -3.93426
rclavicle -8.26944e-014 -4.13472e-014
rhumerus -39.3453 8.95148 -91.7292
rradius 109.33
rwrist -22.9518
rhand -29.6915 -21.2312
rfingers 7.12502
rthumb -3.01956 -51.1895
lclavicle -8.26944e-014 -4.13472e-014
lhumerus -33.5244 14.4427 81.2785
lradius 19.6238
lwrist 22.1894
lhand -11.7813 10.5133
lfingers 7.12502
lthumb 14.2677 40.0032
rfemur -8.95525 -6.01889 24.7926
rtibia 38.4699
rfoot -30.4054 -13.48
rtoes 9.75907
lfemur -10.1779 7.99011 -8.99588
ltibia 32.5038
lfoot -11.7557 0.877455
ltoes -10.5238
1597
root 3.17653 16.2087 -23.0905 175.37 -39.5473 -178.404
lowerback -0.850585 -0.699369 8.72446
upperback 9.19775 -2.77714 4.72776
thorax 10.2583 -1.22764 -0.11101
lowerneck 7.56247 4.56783 7.97313
upperneck -4.32941 6.54062 -6.46096
head -2.24693 3.33797 -3.82976
rclavicle -2.78299e-014 -2.8625e-014
rhumerus -39.2138 8.90052 -91.7465
rradius 109.221
rwrist -22.7706
rhand -29.7663 -21.1939
rfingers 7.12502
rthumb -3.09176 -51.1512
lclavicle -2.78299e-014 -2.8625e-014
lhumerus -33.312 14.3617 81.1753
lradius 19.9004
lwrist 22.3168
lhand -12.2322 10.3871
lfingers 7.12502
lthumb 13.8332 39.9071
rfemur -8.93536 -5.75754 24.9
rtibia 38.4975
rfoot -30.1516 -13.3441
rtoes 9.21845
lfemur -9.88696 8.07755 -8.85879
ltibia 32.5372
lfoot -12.0193 1.48728
ltoes -9.85119
